<svg width="24" height="24" viewBox="0 0 24 24" fill="none" xmlns="http://www.w3.org/2000/svg">
<path d="M9.28033 14.8173L11.75 17.3618V3.7727C11.75 3.346 12.0858 3 12.5 3C12.9142 3 13.25 3.346 13.25 3.7727V17.3618L15.7197 14.8173C15.8661 14.6664 16.0581 14.5909 16.25 14.5909C16.442 14.5909 16.6339 14.6664 16.7803 14.8173C17.0732 15.119 17.0732 15.6083 16.7803 15.91L13.0303 19.7737C12.7375 20.0754 12.2626 20.0754 11.9697 19.7737L8.21967 15.91C7.92678 15.6083 7.92678 15.119 8.21967 14.8173C8.51257 14.5155 8.98748 14.5155 9.28033 14.8173Z" fill="black"/>
</svg>
