<svg width="24" height="24" viewBox="0 0 24 24" fill="none" xmlns="http://www.w3.org/2000/svg">
<path d="M9.28033 8.18275L11.75 5.63822V19.2273C11.75 19.654 12.0858 20 12.5 20C12.9142 20 13.25 19.654 13.25 19.2273V5.63822L15.7197 8.18275C15.8661 8.33364 16.0581 8.40911 16.25 8.40911C16.442 8.40911 16.6339 8.33364 16.7803 8.18275C17.0732 7.88103 17.0732 7.39174 16.7803 7.08996L13.0303 3.22633C12.7375 2.92456 12.2626 2.92456 11.9697 3.22633L8.21967 7.08996C7.92678 7.39169 7.92678 7.88098 8.21967 8.18275C8.51257 8.48448 8.98748 8.48448 9.28033 8.18275Z" fill="black"/>
</svg>
